# xmcd
#
# Track frame offsets: 
#        150
#        14780
#        32626
#        49953
#        72407
#        89053
#        107287
#        122303
#        135675
#        153032
#        171550
#        187755
#        204088
#        219383
#        235824
#        249599
#        272404
#        289722
#        306932
#        329867
#
# Disc length: 4639 seconds
#
# Revision: 0
# Processed by: cddbd v1.5.2PL0 Copyright (c) Steve Scherf et al.
# Submitted via: ExactAudioCopyFreeDBPlugin 1.0
#
DISCID=1f121d14
DTITLE=Various Artist - The very best of Black Flavour Club 3
DYEAR=2016
DGENRE=No, thanks.
TTITLE0=50 Cent - In Da Club
TTITLE1=Missy Elliott - Get Ur Freak On
TTITLE2=The Notorious B. I.G. - Hypnotize
TTITLE3=Snoop Dogg - Beautiful
TTITLE4=Nelly Furtado - Promiscuous (Radio Edit)
TTITLE5=Justin Timberlake - SexyBack
TTITLE6=Timbaland feat. Keri Hilson - The Way I Are (Radio Edit)
TTITLE7=Jason Derulo - Talk Dirty
TTITLE8=Robin Thicke - Blurred Lines (No Rap Version)
TTITLE9=Ja Rule - Always On Time
TTITLE10=Busta Rhymes - Touch It
TTITLE11=Wiz Khalifa - Black And Yellow
TTITLE12=Tyga - Rack City
TTITLE13=The Pussycat Dolls and Busta Rhymes - Don't Cha (Radio Edit)
TTITLE14=Kelis - Milkshake
TTITLE15=Ludacris - Area Codes
TTITLE16=Flo Rida - Low
TTITLE17=Nelly - Hot In Herre
TTITLE18=D 12 - Purple Pills
TTITLE19=Coolio - Gangsta's Paradise
EXTD=
EXTT0=
EXTT1=
EXTT2=
EXTT3=
EXTT4=
EXTT5=
EXTT6=
EXTT7=
EXTT8=
EXTT9=
EXTT10=
EXTT11=
EXTT12=
EXTT13=
EXTT14=
EXTT15=
EXTT16=
EXTT17=
EXTT18=
EXTT19=
PLAYORDER=
